<?xml version="1.0" encoding="UTF-8"?>
<svg id="Layer_1" xmlns="http://www.w3.org/2000/svg" version="1.1" viewBox="0 0 566.84 511.86">
  <!-- Generator: Adobe Illustrator 30.6.0, SVG Export Plug-In . SVG Version: 2.1.4 Build 109)  -->
  <defs>
    <style>
      .st0 {
        display: none;
        font-family: EurostileLT-DemiOblique, 'Eurostile LT';
        font-size: 176.08px;
        font-style: oblique;
        font-weight: 300;
      }

      .st1 {
        fill: #fff;
        letter-spacing: .07em;
      }

      .st2, .st3 {
        fill: #93b91f;
      }

      .st3 {
        letter-spacing: .07em;
      }

      .st4 {
        fill: #f7f7f7;
      }
    </style>
  </defs>
  <g>
    <path class="st4" d="M272.71,142.98l107.74-104.68-233.62-2.04-14.55,2.04s-46.98,10.72-69.45,42.38c-22.47,31.66-24,36.77-25.02,67.4s0,188.94,0,188.94l135.83-127.66,105.19,107.74,201.19-191.49-30.64-26.55,117.45-39.83-34.21,114.38-26.04-26.04-228.26,220.6-108.26-106.21L27.6,398.3S-.99,411.57.03,371.74s-.03-243.06-.03-243.06c0,0,2.47-19.07,4.88-27.32,5.93-20.32,17.94-47.4,49.53-69.19,17.28-11.92,26.46-15.15,36.62-19.93,6.16-2.9,15.17-6.43,21.85-7.89,4.24-.93,9.91-2.11,14.81-2.55C135.06,1.12,144.51,0,154.75,0h237.45s24,1.53,29.11,20.43c5.11,18.89-2.04,31.66-2.04,31.66l-121.02,117.96-25.53-27.06Z"/>
    <path class="st2" d="M167.01,407.23l-74.04,66.38h225.7s21.96,1.53,43.4-13.28,37.28-27.57,45.96-45.96c8.68-18.38,19.91-32.68,20.94-80.68,1.02-48,0-55.66,0-55.66l18.38-14.81h18.38v101.11s1.02,18.89-15.32,53.11c-16.34,34.21-31.15,50.04-49.53,63.83-18.38,13.79-42.38,29.11-66.89,30.13s-263.49,0-263.49,0c0,0-21.96-4.6-25.02-22.98s7.15-29.11,15.83-37.28,80.17-74.04,80.17-74.04l25.53,30.13Z"/>
    <polygon class="st2" points="247.68 285.19 221.23 312.15 278.32 368.17 506.58 147.57 532.62 173.62 566.84 59.23 449.39 99.06 480.03 125.62 278.84 317.11 247.68 285.19"/>
  </g>
  <text class="st0" transform="translate(-223.88 586.41)"><tspan class="st1" x="0" y="0">Order</tspan><tspan class="st3" x="556.39" y="0">Flow</tspan></text>
</svg>